<mxfile host="app.diagrams.net" modified="2022-08-25T17:54:05.861Z" agent="5.0 (Windows NT 10.0; Win64; x64) AppleWebKit/537.36 (KHTML, like Gecko) Chrome/104.0.0.0 Safari/537.36" etag="Qx86NAtdGFTD3mFVMBc6" version="20.1.3" type="github">
  <diagram id="C6M4GyODWJMQ6c2FayQj" name="Page-1">
    <mxGraphModel dx="1422" dy="737" grid="1" gridSize="10" guides="1" tooltips="1" connect="1" arrows="1" fold="1" page="1" pageScale="1" pageWidth="850" pageHeight="1100" math="0" shadow="0">
      <root>
        <mxCell id="0" />
        <mxCell id="1" parent="0" />
        <mxCell id="Sm7KUb4ekVWhqs5tagdV-1" value="" style="rounded=0;whiteSpace=wrap;html=1;dashed=1;strokeColor=#785535;strokeWidth=2;" vertex="1" parent="1">
          <mxGeometry x="120" y="100" width="580" height="540" as="geometry" />
        </mxCell>
        <mxCell id="Sm7KUb4ekVWhqs5tagdV-2" value="" style="endArrow=none;html=1;rounded=0;entryX=1.002;entryY=0.315;entryDx=0;entryDy=0;exitX=-0.009;exitY=0.302;exitDx=0;exitDy=0;dashed=1;strokeColor=#785535;strokeWidth=2;entryPerimeter=0;exitPerimeter=0;" edge="1" parent="1" source="Sm7KUb4ekVWhqs5tagdV-1" target="Sm7KUb4ekVWhqs5tagdV-1">
          <mxGeometry width="50" height="50" relative="1" as="geometry">
            <mxPoint x="400" y="400" as="sourcePoint" />
            <mxPoint x="450" y="350" as="targetPoint" />
          </mxGeometry>
        </mxCell>
        <mxCell id="Sm7KUb4ekVWhqs5tagdV-3" value="" style="endArrow=none;html=1;rounded=0;entryX=1.002;entryY=0.589;entryDx=0;entryDy=0;exitX=-0.005;exitY=0.576;exitDx=0;exitDy=0;dashed=1;strokeColor=#785535;strokeWidth=2;entryPerimeter=0;exitPerimeter=0;" edge="1" parent="1" source="Sm7KUb4ekVWhqs5tagdV-1" target="Sm7KUb4ekVWhqs5tagdV-1">
          <mxGeometry width="50" height="50" relative="1" as="geometry">
            <mxPoint x="130" y="245" as="sourcePoint" />
            <mxPoint x="710" y="245" as="targetPoint" />
          </mxGeometry>
        </mxCell>
        <mxCell id="Sm7KUb4ekVWhqs5tagdV-12" style="edgeStyle=orthogonalEdgeStyle;rounded=0;orthogonalLoop=1;jettySize=auto;html=1;entryX=0.867;entryY=0.067;entryDx=0;entryDy=0;entryPerimeter=0;strokeColor=#000000;strokeWidth=2;" edge="1" parent="1" source="Sm7KUb4ekVWhqs5tagdV-4" target="Sm7KUb4ekVWhqs5tagdV-5">
          <mxGeometry relative="1" as="geometry" />
        </mxCell>
        <mxCell id="Sm7KUb4ekVWhqs5tagdV-13" style="edgeStyle=orthogonalEdgeStyle;rounded=0;orthogonalLoop=1;jettySize=auto;html=1;entryX=0.75;entryY=0;entryDx=0;entryDy=0;strokeColor=#000000;strokeWidth=2;" edge="1" parent="1" source="Sm7KUb4ekVWhqs5tagdV-4" target="Sm7KUb4ekVWhqs5tagdV-6">
          <mxGeometry relative="1" as="geometry" />
        </mxCell>
        <mxCell id="Sm7KUb4ekVWhqs5tagdV-14" style="edgeStyle=orthogonalEdgeStyle;rounded=0;orthogonalLoop=1;jettySize=auto;html=1;strokeColor=#000000;strokeWidth=2;" edge="1" parent="1" source="Sm7KUb4ekVWhqs5tagdV-4" target="Sm7KUb4ekVWhqs5tagdV-7">
          <mxGeometry relative="1" as="geometry" />
        </mxCell>
        <mxCell id="Sm7KUb4ekVWhqs5tagdV-15" style="edgeStyle=orthogonalEdgeStyle;rounded=0;orthogonalLoop=1;jettySize=auto;html=1;strokeColor=#000000;strokeWidth=2;" edge="1" parent="1" source="Sm7KUb4ekVWhqs5tagdV-4" target="Sm7KUb4ekVWhqs5tagdV-8">
          <mxGeometry relative="1" as="geometry" />
        </mxCell>
        <mxCell id="Sm7KUb4ekVWhqs5tagdV-16" style="edgeStyle=orthogonalEdgeStyle;rounded=0;orthogonalLoop=1;jettySize=auto;html=1;strokeColor=#000000;strokeWidth=2;" edge="1" parent="1" source="Sm7KUb4ekVWhqs5tagdV-4" target="Sm7KUb4ekVWhqs5tagdV-9">
          <mxGeometry relative="1" as="geometry" />
        </mxCell>
        <mxCell id="Sm7KUb4ekVWhqs5tagdV-17" style="edgeStyle=orthogonalEdgeStyle;rounded=0;orthogonalLoop=1;jettySize=auto;html=1;entryX=0.5;entryY=0;entryDx=0;entryDy=0;strokeColor=#000000;strokeWidth=2;" edge="1" parent="1" source="Sm7KUb4ekVWhqs5tagdV-4" target="Sm7KUb4ekVWhqs5tagdV-10">
          <mxGeometry relative="1" as="geometry" />
        </mxCell>
        <mxCell id="Sm7KUb4ekVWhqs5tagdV-18" style="edgeStyle=orthogonalEdgeStyle;rounded=0;orthogonalLoop=1;jettySize=auto;html=1;strokeColor=#000000;strokeWidth=2;" edge="1" parent="1" source="Sm7KUb4ekVWhqs5tagdV-4" target="Sm7KUb4ekVWhqs5tagdV-11">
          <mxGeometry relative="1" as="geometry" />
        </mxCell>
        <mxCell id="Sm7KUb4ekVWhqs5tagdV-4" value="Landmark data of joints for frame" style="rounded=0;whiteSpace=wrap;html=1;strokeColor=#000000;strokeWidth=1;" vertex="1" parent="1">
          <mxGeometry x="340" y="110" width="120" height="60" as="geometry" />
        </mxCell>
        <mxCell id="Sm7KUb4ekVWhqs5tagdV-5" value="shoulder" style="rounded=0;whiteSpace=wrap;html=1;strokeColor=#000000;strokeWidth=1;" vertex="1" parent="1">
          <mxGeometry x="140" y="210" width="60" height="30" as="geometry" />
        </mxCell>
        <mxCell id="Sm7KUb4ekVWhqs5tagdV-6" value="elbow" style="rounded=0;whiteSpace=wrap;html=1;strokeColor=#000000;strokeWidth=1;" vertex="1" parent="1">
          <mxGeometry x="220" y="210" width="60" height="30" as="geometry" />
        </mxCell>
        <mxCell id="Sm7KUb4ekVWhqs5tagdV-7" value="wrist" style="rounded=0;whiteSpace=wrap;html=1;strokeColor=#000000;strokeWidth=1;" vertex="1" parent="1">
          <mxGeometry x="290" y="210" width="80" height="30" as="geometry" />
        </mxCell>
        <mxCell id="Sm7KUb4ekVWhqs5tagdV-8" value="hip" style="rounded=0;whiteSpace=wrap;html=1;strokeColor=#000000;strokeWidth=1;" vertex="1" parent="1">
          <mxGeometry x="390" y="210" width="70" height="30" as="geometry" />
        </mxCell>
        <mxCell id="Sm7KUb4ekVWhqs5tagdV-9" value="ankle" style="rounded=0;whiteSpace=wrap;html=1;strokeColor=#000000;strokeWidth=1;" vertex="1" parent="1">
          <mxGeometry x="480" y="210" width="60" height="30" as="geometry" />
        </mxCell>
        <mxCell id="Sm7KUb4ekVWhqs5tagdV-10" value="knee" style="rounded=0;whiteSpace=wrap;html=1;strokeColor=#000000;strokeWidth=1;" vertex="1" parent="1">
          <mxGeometry x="550" y="210" width="60" height="30" as="geometry" />
        </mxCell>
        <mxCell id="Sm7KUb4ekVWhqs5tagdV-11" value="heel" style="rounded=0;whiteSpace=wrap;html=1;strokeColor=#000000;strokeWidth=1;" vertex="1" parent="1">
          <mxGeometry x="620" y="210" width="60" height="30" as="geometry" />
        </mxCell>
      </root>
    </mxGraphModel>
  </diagram>
</mxfile>
